<svg id="Layer_1" data-name="Layer 1" xmlns="http://www.w3.org/2000/svg" viewBox="0 0 32 32"><defs><style>.cls-1{fill:#747987;}</style></defs><title>American Football</title><path class="cls-1" d="M19.21,5.38A10.71,10.71,0,0,0,7.39,14.76a2,2,0,0,0,.49,1.57,2,2,0,0,0,1.5.67H17v1.74l-.52.55H7.81a2,2,0,0,0-2,1.64c-.51,2.8-.33,4.76.56,5.82a2.4,2.4,0,0,0,1.91.88c2.38,0,6.33-3.61,8.69-6v.05a2,2,0,0,0,2,2h5.55A2,2,0,0,0,26.06,23a10.57,10.57,0,0,0,2.57-8.1A10.7,10.7,0,0,0,19.21,5.38ZM7.94,25.47a2.16,2.16,0,0,1-.34-1.1h3.26a5.57,5.57,0,0,1-2.55,1.26A.39.39,0,0,1,7.94,25.47Zm5.37-3.1H7.65c0-.33.09-.68.16-1.08h6.68C14.1,21.66,13.71,22,13.31,22.37Zm11.24-.67H19V17a2,2,0,0,0-2-2H9.37A8.71,8.71,0,0,1,18,7.32a7.72,7.72,0,0,1,1,0A8.68,8.68,0,0,1,24.55,21.7Z"/><path class="cls-1" d="M22.89,14.32a2.5,2.5,0,1,0,2.49,2.49A2.5,2.5,0,0,0,22.89,14.32Zm0,3a.5.5,0,1,1,.49-.5A.5.5,0,0,1,22.89,17.31Z"/></svg>