<svg id="Layer_1" data-name="Layer 1" xmlns="http://www.w3.org/2000/svg" viewBox="0 0 32 32"><defs><style>.cls-1{fill:#747987;}</style></defs><title>Archery</title><path class="cls-1" d="M27.82,7.16l-.94-.28-.16-1A1.18,1.18,0,0,0,26.05,5,1.17,1.17,0,0,0,25,5.09L20.87,7.5a1,1,0,0,0-.16.12A10.76,10.76,0,0,0,15,6a10.9,10.9,0,1,0,10.18,7.08,1.1,1.1,0,0,0,.37-.31L28.43,9a1.16,1.16,0,0,0,.19-1.08A1.19,1.19,0,0,0,27.82,7.16Zm-7.06,9.71A5.76,5.76,0,1,1,15,11.11a5.71,5.71,0,0,1,3.88,1.52l-1.05.94a4.34,4.34,0,0,0-7.2,3.3,4.37,4.37,0,1,0,8.74,0A4.32,4.32,0,0,0,19,15.18l1.08-1A5.77,5.77,0,0,1,20.76,16.87Zm-3.39,0a2.37,2.37,0,1,1-1.05-2l-2.16,1.92a1,1,0,0,0-.08,1.41,1,1,0,0,0,1.41.08l1.86-1.65A1.49,1.49,0,0,1,17.37,16.87ZM15,25.75a8.88,8.88,0,1,1,5.42-15.9l.12,1.31-.15.14a7.9,7.9,0,1,0,1.24,1.57l.24-.21,1.14.25a.88.88,0,0,0,.06.27A8.89,8.89,0,0,1,15,25.75Zm9.28-14.61-1.77-.39L22.34,9l2.6-1.53,0,.3a1.19,1.19,0,0,0,.83.94l.29.08Z"/></svg>