<svg id="Layer_1" data-name="Layer 1" xmlns="http://www.w3.org/2000/svg" viewBox="0 0 32 32"><defs><style>.cls-1{fill:#747987;}</style></defs><title>Baseball</title><path class="cls-1" d="M22,5.44a12.12,12.12,0,1,0-6,22.68,12.24,12.24,0,0,0,3.28-.45A12.12,12.12,0,0,0,22,5.44ZM7.19,11a10,10,0,0,1,6.09-4.78,9.83,9.83,0,0,1,2-.33,13.67,13.67,0,0,1-.53,2.51l-1.08-.26a1,1,0,0,0-.46,2l.81.19a13,13,0,0,1-.86,1.58l-.44-.44a1,1,0,0,0-1.42,1.41l.63.64a13.32,13.32,0,0,1-1.42,1.38L10.09,14a1,1,0,1,0-1.79.89L8.84,16A14.77,14.77,0,0,1,6,17.3,9.94,9.94,0,0,1,7.19,11Zm-.75,8.23a16.66,16.66,0,0,0,3.3-1.44l.36.74a1,1,0,0,0,.9.55,1,1,0,0,0,.44-.1,1,1,0,0,0,.45-1.34l-.48-1a15,15,0,0,0,1.91-1.79l.84.84a1,1,0,0,0,.71.3,1,1,0,0,0,.71-1.71l-1-1A16.18,16.18,0,0,0,16,10.79l1.2.28.23,0a1,1,0,0,0,.23-2l-.95-.23A17,17,0,0,0,17.29,6,10.33,10.33,0,0,1,21,7.19a10,10,0,0,1,4.77,6.09.29.29,0,0,1,0,.09,16.83,16.83,0,0,0-1.94.82l-.38-.91a1,1,0,0,0-1.84.78l.48,1.14A16.2,16.2,0,0,0,19.8,17l-1.18-.83a1,1,0,1,0-1.15,1.63l1,.68A15.87,15.87,0,0,0,17,20.65l-1-.31a1,1,0,0,0-.59,1.91l.78.24a16.69,16.69,0,0,0-.89,3.59A10.18,10.18,0,0,1,11,24.81,10,10,0,0,1,6.44,19.27ZM24.81,21a10,10,0,0,1-6.09,4.78A10.18,10.18,0,0,1,17.3,26a14.33,14.33,0,0,1,.77-2.94l1.18.35a1,1,0,0,0,.29.05,1,1,0,0,0,.29-2l-.91-.27a12.65,12.65,0,0,1,1.13-1.63l.74.51a.93.93,0,0,0,.57.19,1,1,0,0,0,.58-1.82l-.51-.36A15.28,15.28,0,0,1,22.85,17l.33.77a1,1,0,0,0,.92.62,1.09,1.09,0,0,0,.39-.08A1,1,0,0,0,25,17l-.43-1a15.18,15.18,0,0,1,1.5-.66A10,10,0,0,1,24.81,21Z"/></svg>