<svg id="Layer_1" data-name="Layer 1" xmlns="http://www.w3.org/2000/svg" viewBox="0 0 32 32"><defs><style>.cls-1{fill:#747987;}</style></defs><title>Basketball</title><path class="cls-1" d="M16,28.12A12.12,12.12,0,1,0,3.88,16,12.14,12.14,0,0,0,16,28.12ZM7.43,21.35a18.12,18.12,0,0,0,4.07-6.81c.88.16,1.82.36,2.79.58a63.18,63.18,0,0,0-2.58,10A10.15,10.15,0,0,1,7.43,21.35Zm6.24,4.48c.07-1.92,1.23-6,2.57-10.2a31.88,31.88,0,0,1,4,1.36,18.14,18.14,0,0,0-.39,8.37,9.85,9.85,0,0,1-3.81.76A10,10,0,0,1,13.67,25.83Zm8-1.46A15.63,15.63,0,0,1,22,17.86a13.91,13.91,0,0,1,3.2,2.24A10.19,10.19,0,0,1,21.67,24.37ZM25.91,18A17.08,17.08,0,0,0,22.73,16a11.12,11.12,0,0,1,2.67-3.67A10,10,0,0,1,26.12,16,10.51,10.51,0,0,1,25.91,18Zm-1.45-7.56a13,13,0,0,0-3.55,4.65,36.56,36.56,0,0,0-4.05-1.4c.93-2.77,1.86-5.41,2.54-7.24A10.21,10.21,0,0,1,24.46,10.47ZM17.45,6c-.54,1.46-1.52,4.18-2.53,7.21-1-.25-2-.45-2.95-.62a13.3,13.3,0,0,0-.24-5.75A9.67,9.67,0,0,1,17.45,6ZM9.93,7.92A11.86,11.86,0,0,1,10,12.25c-1.39-.21-2.51-.33-3.2-.39A10.29,10.29,0,0,1,9.93,7.92Zm-3.8,5.89c.49,0,1.71.16,3.35.4a15.91,15.91,0,0,1-3,5.19A9.81,9.81,0,0,1,5.88,16,9.94,9.94,0,0,1,6.13,13.81Z"/></svg>