<svg id="Layer_1" data-name="Layer 1" xmlns="http://www.w3.org/2000/svg" viewBox="0 0 32 32"><defs><style>.cls-1{fill:#747987;}</style></defs><title>Basketball Hoop</title><path class="cls-1" d="M26.43,6H5.63a2,2,0,0,0-2,2V23.92a2,2,0,0,0,2,2h20.8a2,2,0,0,0,2-2V8A2,2,0,0,0,26.43,6ZM15,18.56a2.77,2.77,0,0,1,0-5.17Zm2-5.17a2.77,2.77,0,0,1,0,5.17Zm-11.4-.2h.45a1.2,1.2,0,0,1,1.2,1.2v3.16a1.2,1.2,0,0,1-1.2,1.2H5.63Zm0,7.56h.45a3.2,3.2,0,0,0,3.2-3.2V14.39a3.21,3.21,0,0,0-3.2-3.2H5.63V8H15V11.3a4.77,4.77,0,0,0,0,9.34v3.28H5.63ZM17,23.92V20.64a4.77,4.77,0,0,0,0-9.34V8h9.4v3.16H26a3.21,3.21,0,0,0-3.21,3.2v3.16A3.21,3.21,0,0,0,26,20.75h.45v3.17Zm9.4-10.73v5.56H26a1.21,1.21,0,0,1-1.21-1.2V14.39A1.21,1.21,0,0,1,26,13.19Z"/></svg>