<svg id="Layer_1" data-name="Layer 1" xmlns="http://www.w3.org/2000/svg" viewBox="0 0 32 32"><defs><style>.cls-1{fill:#747987;}</style></defs><title>Bicycle</title><path class="cls-1" d="M24.58,16l-.19,0L23,8.86a1,1,0,0,0-1-.81h-3.3a1,1,0,0,0,0,2H21.2l.43,2.2H12.88L11.39,9.72a2,2,0,0,0-1.68-.88H6.89a1,1,0,0,0,0,2H9.74L11,12.94l-2,3.23A5.08,5.08,0,0,0,7.57,16a5,5,0,1,0,4.89,6h4.38a1,1,0,0,0,.8-.4l4.61-6.09.2,1a5,5,0,1,0,2.13-.5ZM12.1,14.88l3,5.08H12.46a5,5,0,0,0-1.75-2.86ZM9.65,18.8A3.18,3.18,0,0,1,10.38,20H8.92ZM7.57,24a3,3,0,1,1,0-6l.23,0L6.27,20.42A1,1,0,0,0,7.12,22h3.26A3,3,0,0,1,7.57,24Zm9.37-4.78-2.89-4.92h6.62ZM24.58,24a3,3,0,0,1-1.73-5.43l.51,2.63a1,1,0,0,0,1,.81l.2,0a1,1,0,0,0,.79-1.18L24.78,18a3,3,0,0,1-.2,6Z"/></svg>