<svg id="Layer_1" data-name="Layer 1" xmlns="http://www.w3.org/2000/svg" viewBox="0 0 32 32"><defs><style>.cls-1{fill:#747987;}</style></defs><title>Bowling</title><path class="cls-1" d="M19.77,11.52a8.79,8.79,0,0,0-5.57,2L14.8,8a3.07,3.07,0,0,0,0-.42A3.83,3.83,0,1,0,7.2,8l.61,5.63a13.58,13.58,0,0,0,.26,14.81l.3.4h5.19l.29-.31a6.8,6.8,0,0,0,.84-1.18A8.65,8.65,0,0,0,19.77,29a8.75,8.75,0,0,0,0-17.5ZM9.64,6.39A1.8,1.8,0,0,1,11,5.78,1.83,1.83,0,0,1,12.83,7.6c0,.08,0,.15,0,.21l-.56,5.07H9.74L9.18,7.81A1.86,1.86,0,0,1,9.64,6.39ZM9.41,26.87a11.63,11.63,0,0,1,0-12h3.23a7.09,7.09,0,0,1,.45.73,11.18,11.18,0,0,1,1.18,5.27,12,12,0,0,1-.82,4.54,7.85,7.85,0,0,1-.79,1.45ZM19.77,27a6.66,6.66,0,0,1-4.23-1.5l.09-.31.14-.47c.06-.25.12-.5.17-.76s.07-.31.1-.47.08-.57.11-.87c0-.14,0-.27.05-.42,0-.44.06-.88.06-1.34s0-1.07-.08-1.57l0-.26c-.06-.46-.13-.89-.21-1.3l-.06-.24a10,10,0,0,0-.31-1.12s0,0,0,0c-.12-.34-.24-.64-.36-.92l0-.1A6.75,6.75,0,1,1,19.77,27Z"/><circle class="cls-1" cx="21.93" cy="16.63" r="1.19"/><circle class="cls-1" cx="23.81" cy="19.08" r="1.19"/><circle class="cls-1" cx="20" cy="19.08" r="1.19"/></svg>