<svg id="Layer_1" data-name="Layer 1" xmlns="http://www.w3.org/2000/svg" viewBox="0 0 32 32"><defs><style>.cls-1{fill:#747987;}</style></defs><title>Boxing</title><path class="cls-1" d="M26.12,6H18.5a3,3,0,0,0-2.91-2.5H5.88a3,3,0,0,0-3,3V17.13a2.94,2.94,0,0,0,1.66,2.64V24a2,2,0,0,0,2,2h8.34v.5a2,2,0,0,0,2,2h8.5a2,2,0,0,0,2-2V22.27a2.94,2.94,0,0,0,1.66-2.64V8.92A3,3,0,0,0,26.12,6Zm1,3V19.63a1,1,0,0,1-1,.95h-9v-.92a5.44,5.44,0,0,0,3.31-5V10.23A3.16,3.16,0,0,0,19.44,8h6.68A1,1,0,0,1,27.08,8.92ZM4.92,6.42a1,1,0,0,1,1-1h9.71a1,1,0,0,1,.95,1v.67A3.21,3.21,0,0,0,14,10.23v2.94a1,1,0,0,0,2,0V10.23a1.21,1.21,0,1,1,2.42,0v4.44A3.42,3.42,0,0,1,15,18.08H5.88a1,1,0,0,1-1-.95ZM6.58,23.29h5.5a1,1,0,0,0,0-2H6.58V20.08h8.5v4H6.58Zm10.34,3.25V25s0-.06,0-.09a2.06,2.06,0,0,0,.18-.83V22.58h8.34v1.21h-1.5a1,1,0,0,0,0,2h1.5v.75Z"/></svg>