<svg id="Layer_1" data-name="Layer 1" xmlns="http://www.w3.org/2000/svg" viewBox="0 0 32 32"><defs><style>.cls-1{fill:#747987;}</style></defs><title>Burn</title><path class="cls-1" d="M9.71,9.3a1.14,1.14,0,0,0-1.07-1,1.11,1.11,0,0,0-1.17.87c-.47,2-1.53,7-1.19,10.82.48,5.59,4.57,9.65,9.72,9.66h0a9.75,9.75,0,0,0,9.75-9.7c.05-.59.24-4.68-3.61-8.73a14,14,0,0,1-3.87-7.81,1.12,1.12,0,0,0-.82-1,1.15,1.15,0,0,0-1.22.4c-1.29,1.67-4.8,6.68-4.12,10.8A6.2,6.2,0,0,1,9.71,9.3Zm3.23,15.18A10.73,10.73,0,0,1,13,22.53a5.52,5.52,0,0,0,1.64,1,1.08,1.08,0,0,0,1.25-.37l.44-.69-.47-.6c-.44-.57-.19-1.63.36-2.71a8.59,8.59,0,0,0,1.59,2.34,4.14,4.14,0,0,1,1.29,2.92v.12A3.07,3.07,0,0,1,16,27.63h0A3.22,3.22,0,0,1,12.94,24.48Zm.53-7.84a1.15,1.15,0,0,0,1.33-.39,1.14,1.14,0,0,0,0-1.39c-1.94-2.47.38-6.84,1.93-9.23a16.73,16.73,0,0,0,4,6.94c3.4,3.58,3.08,7.06,3.07,7.2v.11a7.73,7.73,0,0,1-2.9,6,4.78,4.78,0,0,0,.21-1.31,6.1,6.1,0,0,0-1.83-4.45,5.9,5.9,0,0,1-1.65-3.32,1.07,1.07,0,0,0-.77-.92l-.72-.15-.42.53a10.77,10.77,0,0,0-1.95,3.86,2.38,2.38,0,0,1-.13-.57,1.09,1.09,0,0,0-1-1h-.91l-.2.82a18,18,0,0,0-.56,5.2,5.9,5.9,0,0,0,.21,1.14,8.88,8.88,0,0,1-2.89-6,29.56,29.56,0,0,1,.49-7A9.26,9.26,0,0,0,13.47,16.64Z"/></svg>