<svg id="Layer_1" data-name="Layer 1" xmlns="http://www.w3.org/2000/svg" viewBox="0 0 32 32"><defs><style>.cls-1{fill:#747987;}</style></defs><title>Chess</title><path class="cls-1" d="M7.72,27.38A1.89,1.89,0,0,0,9.6,29.26H22.4a1.89,1.89,0,0,0,1.88-1.88,4.42,4.42,0,0,0-1.71-3.48,2.31,2.31,0,0,0,.59-1.52,2,2,0,0,0-2-2h-1V16a2,2,0,0,0,1.37-1.88v-.31A2,2,0,0,0,20,11.85a5.52,5.52,0,1,0-8,0,2,2,0,0,0-1.52,1.92v.31A2,2,0,0,0,11.88,16v4.43H10.83a2,2,0,0,0-2,2,2.31,2.31,0,0,0,.59,1.52A4.42,4.42,0,0,0,7.72,27.38Zm14.68.12H9.6a.13.13,0,0,1-.12-.12,2.72,2.72,0,0,1,2.71-2.71h7.62a2.72,2.72,0,0,1,2.71,2.71A.13.13,0,0,1,22.4,27.5ZM12.49,14.3a.22.22,0,0,1-.23-.22v-.31a.23.23,0,0,1,.23-.23h7a.23.23,0,0,1,.23.23v.31a.22.22,0,0,1-.23.22ZM16,4.51A3.52,3.52,0,1,1,12.48,8,3.53,3.53,0,0,1,16,4.51ZM13.58,16.07h4.84v4.32H13.58Zm-2.44,6.84a.54.54,0,0,1-.54-.53.23.23,0,0,1,.23-.23H21.17a.23.23,0,0,1,.23.23.54.54,0,0,1-.54.53H11.14Z"/></svg>