<svg id="Layer_1" data-name="Layer 1" xmlns="http://www.w3.org/2000/svg" viewBox="0 0 32 32"><defs><style>.cls-1{fill:#747987;}</style></defs><title>Corner Flag</title><path class="cls-1" d="M25.48,19h-12V12.59l6.32-3.65a1,1,0,0,0,0-1.73L13.19,3.38a1,1,0,0,0-1.32.31,1,1,0,0,0-.38.76V19.54L5.72,27.15a1,1,0,0,0,.19,1.4,1.06,1.06,0,0,0,.61.2,1,1,0,0,0,.79-.4l1.48-1.94a11.8,11.8,0,0,0,4.14.82,8.92,8.92,0,0,0,3.58-.73A11.62,11.62,0,0,0,22,21h3.5a1,1,0,1,0,0-2ZM13.69,6l3.62,2.1-3.62,2.09Zm2,18.69a7.87,7.87,0,0,1-5.65.07L12.9,21h6.79A9.23,9.23,0,0,1,15.7,24.67Z"/></svg>