<svg id="Layer_1" data-name="Layer 1" xmlns="http://www.w3.org/2000/svg" viewBox="0 0 32 32"><defs><style>.cls-1{fill:#747987;}</style></defs><title>Dive</title><path class="cls-1" d="M9.58,19h1.9a2.75,2.75,0,0,0,2.61-1.87l.29-.84a1.4,1.4,0,0,1,1.32-.95h.73a1.4,1.4,0,0,1,1.33,1l.25.78A2.76,2.76,0,0,0,20.64,19h.11v2.33a1,1,0,0,1-1.08,1,1,1,0,0,1-.79-.41h.83a1,1,0,0,0,0-2H12.29a1,1,0,0,0,0,2h.29a6.75,6.75,0,0,0,13.42-1V17.56a5.18,5.18,0,0,0,0-7.62V4.42a1,1,0,0,0-1-1H21.75a1,1,0,0,0-1,1V8.5H9.58a5.25,5.25,0,0,0,0,10.5ZM24,20.92a4.75,4.75,0,0,1-9.39,1h2.12a3,3,0,0,0,6-.59V19A5.21,5.21,0,0,0,24,18.73Zm0-15.5V8.77a5.21,5.21,0,0,0-1.25-.23V5.42ZM9.58,10.5H22.42a3.25,3.25,0,0,1,0,6.5H20.64a.77.77,0,0,1-.73-.53l-.25-.78a3.39,3.39,0,0,0-3.23-2.35H15.7a3.4,3.4,0,0,0-3.21,2.3l-.29.84a.75.75,0,0,1-.72.52H9.58a3.25,3.25,0,1,1,0-6.5Z"/><path class="cls-1" d="M8.83,16a1,1,0,0,0,.71.3,1,1,0,0,0,.71-1.71L8.71,13A1,1,0,0,0,7.3,13a1,1,0,0,0,0,1.42Z"/><path class="cls-1" d="M10.06,13.94a1,1,0,0,0,1.42,0,1,1,0,0,0,0-1.42l-.92-.92A1,1,0,0,0,9.14,13Z"/></svg>