<svg id="Layer_1" data-name="Layer 1" xmlns="http://www.w3.org/2000/svg" viewBox="0 0 32 32"><defs><style>.cls-1{fill:#747987;}</style></defs><title>Fencing</title><path class="cls-1" d="M26.05,20.07l2.41-2.41-.71-.7a5.89,5.89,0,0,0-4.19-1.74,6,6,0,0,0-2,.36l-1.89-1.76c4.83-5.51,4.45-5.92,3.81-6.56l-.93-.93c-.63-.65-1-1-6.73,3.94C10.4,5.4,10.1,5.7,9.47,6.32l-.94.95c-.62.63-.93,1,3.86,6.37l-2,1.93A5.91,5.91,0,0,0,4.25,17l-.71.7L6,20.07,4.11,21.91a2,2,0,0,0-.58,1.41,2,2,0,0,0,.58,1.42l.94.94a2,2,0,0,0,2.83,0l1.84-1.84,2.4,2.4.71-.71a5.87,5.87,0,0,0,1.37-6.18l1.8-1.8,1.8,1.8a5.87,5.87,0,0,0,1.37,6.18l.71.71,2.4-2.4,1.84,1.84a2,2,0,0,0,2.83,0l.94-.94a2,2,0,0,0,.58-1.42,2,2,0,0,0-.58-1.41ZM21.57,8.2l0,0a51.83,51.83,0,0,1-3.29,4.1l-.83-.84A51.71,51.71,0,0,1,21.57,8.2ZM6.46,24.26l-.94-.94,1.84-1.84.94.94ZM12,23.32l-.9-.9L7.36,18.65l-.9-.9a4,4,0,0,1,3.76-.1,3.76,3.76,0,0,1,1,.74l.18.18h0a4,4,0,0,1,.46.56,3.45,3.45,0,0,1,.25.41l0,.06A3.9,3.9,0,0,1,12,23.32Zm1.15-5.78a3.61,3.61,0,0,0-.33-.35v0L12.62,17a1.42,1.42,0,0,0-.13-.12,2.73,2.73,0,0,0-.25-.23l1.41-1.41.94.94Zm3.55-2.09c-2.36-2.56-4.89-5.45-6-6.89,1.69,1.36,5.44,4.74,9,8.07l-.3.28-.06.05-.2.21s0,0,0,0l-.31.33-1.4-1.4h0ZM20,23.32a4,4,0,0,1,.16-4.2l.05-.07c0-.06.1-.11.14-.17s.17-.2.26-.29l.21-.21a3.62,3.62,0,0,1,1-.73h0a3.93,3.93,0,0,1,3.74.11l-.9.9-3.77,3.77Zm5.57.94L23.7,22.42l.94-.94,1.84,1.84Z"/></svg>