<svg id="Layer_1" data-name="Layer 1" xmlns="http://www.w3.org/2000/svg" viewBox="0 0 32 32"><defs><style>.cls-1{fill:#747987;}</style></defs><title>Finish Flag</title><path class="cls-1" d="M28.27,9.8A1.78,1.78,0,0,0,26.52,8l-5.21.06V7.58a2,2,0,0,0-2-2.07H11.53a2.91,2.91,0,0,0-5.63,1V26.38H4.73a1,1,0,0,0,0,2H14.4a1,1,0,1,0,0-2H11.73V17.92h7.59a2.1,2.1,0,0,0,.61,1.44,1.94,1.94,0,0,0,1.38.57h0l5-.05a2,2,0,0,0,2-2.06v-.35l-2.73-3.56,2.73-3.79ZM7.9,6.54a.92.92,0,0,1,1.83,0V26.21H7.9Zm3.83,1,7.58.06v8.34H11.73Zm12.19,5.22a2.07,2.07,0,0,0,0,2.46l2.09,2.68-4.74,0v-7.8L25.88,10Z"/></svg>