<svg id="Layer_1" data-name="Layer 1" xmlns="http://www.w3.org/2000/svg" viewBox="0 0 32 32"><defs><style>.cls-1{fill:#747987;}</style></defs><title>Football Yard</title><path class="cls-1" d="M22.84,4H9.16A4.08,4.08,0,0,0,5.08,8.07v5.82a4.07,4.07,0,0,0,4,4.06v5.7a1,1,0,0,0,2,0V22.56H15v4.83a1,1,0,0,0,2,0V22.56h4.3v1.09a1,1,0,0,0,2,0V17.91a4.06,4.06,0,0,0,3.62-4V8.07A4.08,4.08,0,0,0,22.84,4ZM21.3,16H17V13.65h4.3ZM15,16H11.06V13.65H15Zm-3.94,4.6V18H15v2.6Zm5.94,0V18h4.3v2.6Zm7.92-6.67a2.09,2.09,0,0,1-1.62,2V12.65a1,1,0,0,0-1-1H10.06a1,1,0,0,0-1,1V16a2.07,2.07,0,0,1-2-2.06V8.07A2.08,2.08,0,0,1,9.16,6H22.84a2.08,2.08,0,0,1,2.08,2.07Z"/><path class="cls-1" d="M19.68,8H12.32a1,1,0,0,0,0,2h7.36a1,1,0,0,0,0-2Z"/></svg>