<svg id="Layer_1" data-name="Layer 1" xmlns="http://www.w3.org/2000/svg" viewBox="0 0 32 32"><defs><style>.cls-1{fill:#747987;}</style></defs><title>Gloves</title><path class="cls-1" d="M26,16.11a5.31,5.31,0,0,0-3.67-.22l3.47-6.44a2.25,2.25,0,0,0-.91-3,1.8,1.8,0,0,0-.38-.16A2.23,2.23,0,0,0,23.36,4,2.26,2.26,0,0,0,21,4.15a2.46,2.46,0,0,0-.41-.28,2.24,2.24,0,0,0-3,.91l0,.08a1.53,1.53,0,0,0-.21-.14,2.23,2.23,0,0,0-3,.91L7.06,19a2,2,0,0,0-1.25,1l-.6,1.1A2,2,0,0,0,6,23.76l8.14,4.4a2,2,0,0,0,.95.24,2.18,2.18,0,0,0,.57-.08,2,2,0,0,0,1.19-1l.6-1.1a1.9,1.9,0,0,0,.22-1.11c1.2-2.22,3.82-3.25,6-4.07s3.73-1.44,3.53-3.09A2.43,2.43,0,0,0,26,16.11ZM15.7,25.3l-.59,1.1L7,22l.6-1.1,8.14,4.4Zm7.23-6.1c-2.1.81-4.87,1.89-6.52,4.21l-7.33-4L16,6.58a.22.22,0,0,1,.14-.12.22.22,0,0,1,.19,0,.24.24,0,0,1,.1.33L14.94,9.62h0l-1.09,2a1,1,0,1,0,1.76.95l2.61-4.84h0l1.1-2a.24.24,0,1,1,.43.23L16,12.84a1,1,0,0,0,1.76.95l1.66-3.08h0l2.62-4.85a.28.28,0,0,1,.15-.12.24.24,0,0,1,.18,0,.25.25,0,0,1,.1.34l-.64,1.19v0l-2.62,4.84h0l-1,1.86a1,1,0,0,0,.41,1.36A1,1,0,0,0,20,15l3.63-6.71a.24.24,0,0,1,.33-.1.21.21,0,0,1,.12.15.19.19,0,0,1,0,.19l-4.38,8.12a1,1,0,0,0,.4,1.36,1,1,0,0,0,.22.08,1,1,0,0,0,1.07.22c1.1-.44,3-.84,3.63-.45a.42.42,0,0,1,.19.31A9,9,0,0,1,22.93,19.2Z"/></svg>