<svg id="Layer_1" data-name="Layer 1" xmlns="http://www.w3.org/2000/svg" viewBox="0 0 32 32"><defs><style>.cls-1{fill:#747987;}</style></defs><title>Goal Post ( Gawang )</title><path class="cls-1" d="M26.43,6H5.63a2,2,0,0,0-2,2V23.92a1,1,0,0,0,2,0V21.38h20.8v2.54a1,1,0,0,0,2,0V8A2,2,0,0,0,26.43,6Zm0,10.1H24.84V14.75h1.59ZM15,14.75v1.38H13.34V14.75Zm-1.66-2V11.5H15v1.25Zm3.66,2h2v1.38H17Zm0-2V11.5h2v1.25Zm4-1.25h1.88v1.25H21Zm0-2V8h1.88V9.5Zm-2,0H17V8h2Zm-4,0H13.34V8H15Zm-3.66,0H9.46V8h1.88Zm0,2v1.25H9.46V11.5ZM7.46,12.75H5.63V11.5H7.46Zm-1.83,2H7.46v1.38H5.63Zm3.83,0h1.88v1.38H9.46Zm1.88,3.38v1.25H9.46V18.13Zm2,0H15v1.25H13.34Zm3.66,0h2v1.25H17Zm4,0h1.88v1.25H21Zm0-2V14.75h1.88v1.38Zm3.88-3.38V11.5h1.59v1.25ZM26.43,9.5H24.84V8h1.59ZM7.46,8V9.5H5.63V8ZM5.63,18.13H7.46v1.25H5.63Zm19.21,1.25V18.13h1.59v1.25Z"/><path class="cls-1" d="M19.27,23.92H12.15a1,1,0,1,0,0,2h7.12a1,1,0,0,0,0-2Z"/></svg>