<svg id="Layer_1" data-name="Layer 1" xmlns="http://www.w3.org/2000/svg" viewBox="0 0 32 32"><defs><style>.cls-1{fill:#747987;}</style></defs><title>Golf</title><path class="cls-1" d="M8.31,23.59a6.57,6.57,0,0,0,6.22,4.49h7.25a1.78,1.78,0,0,0,1.77-1.64L26,16.36h0A1.8,1.8,0,0,0,25.72,15a1.24,1.24,0,0,0-.18-.22l2.82-8.92a2,2,0,0,0-1.21-2.48L26.31,3a2,2,0,0,0-1.55.07,2,2,0,0,0-1,1.17l-3,9.27a1.8,1.8,0,0,0-.75.36,1.77,1.77,0,0,0-.66,1.39A2.19,2.19,0,0,1,18.69,17a2.64,2.64,0,0,1-1.8.55h-1a5.66,5.66,0,1,0-7.54,6.08ZM25.61,4.92l.85.31L23.68,14l-1-.21ZM20,18.45a4,4,0,0,0,1.23-2.9l2.7.55-2.38,10-7,0a4.57,4.57,0,0,1-3.88-2.14l.45-.06c.12,0,.24,0,.36-.06a6.61,6.61,0,0,0,.76-.22l.2-.07a5.56,5.56,0,0,0,.87-.46,1.12,1.12,0,0,0,.22-.16,5.68,5.68,0,0,0,.56-.44,3,3,0,0,0,.25-.25,6,6,0,0,0,.41-.47c.08-.1.15-.21.22-.31a4.8,4.8,0,0,0,.32-.54c.05-.11.11-.22.16-.34a4.26,4.26,0,0,0,.22-.63,2,2,0,0,0,.1-.32l0-.1h1A4.47,4.47,0,0,0,20,18.45Zm-9.78-3.82a3.66,3.66,0,0,1,3.66,3.65v.19A3.64,3.64,0,0,1,10.25,22a3.5,3.5,0,0,1-.91-.12h0a3.66,3.66,0,0,1,.91-7.21Z"/><path class="cls-1" d="M10.25,16.57a.57.57,0,0,0,0-1.14.57.57,0,0,0,0,1.14Z"/><path class="cls-1" d="M12.14,17.72a.58.58,0,1,0-.58-.57A.58.58,0,0,0,12.14,17.72Z"/><circle class="cls-1" cx="12.14" cy="19.31" r="0.57"/><path class="cls-1" d="M10.25,18.29a.57.57,0,0,0,0-1.14.57.57,0,0,0,0,1.14Z"/></svg>