<svg id="Layer_1" data-name="Layer 1" xmlns="http://www.w3.org/2000/svg" viewBox="0 0 32 32"><defs><style>.cls-1{fill:#747987;}</style></defs><title>Golf Hole</title><path class="cls-1" d="M16.61,17.58a14.6,14.6,0,0,0-8.47,2.31V12.11l6.12-3.54a1,1,0,0,0,0-1.73L7.64,3,7.56,3,7.48,3a1,1,0,0,0-.34-.07h0A1,1,0,0,0,6.79,3L6.71,3,6.64,3a.83.83,0,0,0-.21.16h0a1.07,1.07,0,0,0-.19.28l0,.08a.84.84,0,0,0-.07.35V23.25c0,3.18,4.6,5.67,10.47,5.67s10.48-2.49,10.48-5.67S22.49,17.58,16.61,17.58ZM8.14,9.8V5.61L11.76,7.7Zm3.68,15.27c0-.74,1.91-1.86,4.79-1.86s4.8,1.12,4.8,1.86-1.91,1.85-4.8,1.85S11.82,25.81,11.82,25.07Zm11.56.32a1.73,1.73,0,0,0,0-.32c0-2.2-2.92-3.86-6.8-3.86s-6.79,1.66-6.79,3.86c0,.11,0,.21,0,.32-1.08-.64-1.7-1.41-1.7-2.14,0-1.73,3.48-3.67,8.47-3.67s8.48,1.94,8.48,3.67C25.09,24,24.47,24.75,23.38,25.39Z"/></svg>