<svg id="Layer_1" data-name="Layer 1" xmlns="http://www.w3.org/2000/svg" viewBox="0 0 32 32"><defs><style>.cls-1{fill:#747987;}</style></defs><title>Gym</title><path class="cls-1" d="M28,13.5H26.83v-.67a2,2,0,0,0-2-2H23.74a2.2,2.2,0,0,0-.36,0A2,2,0,0,0,21.74,10H20.65a2,2,0,0,0-2,2v1.5h-5.3V12a2,2,0,0,0-2-2H10.26a2,2,0,0,0-1.64.87,2.2,2.2,0,0,0-.36,0H7.17a2,2,0,0,0-2,2v.67H4a2,2,0,0,0-2,2v.58a2,2,0,0,0,2,2H5.17v1.09a2,2,0,0,0,2,2H8.26a2.2,2.2,0,0,0,.36,0,2,2,0,0,0,1.64.87h1.09a2,2,0,0,0,2-2V18.08h5.3V20a2,2,0,0,0,2,2h1.09a2,2,0,0,0,1.64-.87,2.2,2.2,0,0,0,.36,0h1.09a2,2,0,0,0,2-2V18.08H28a2,2,0,0,0,2-2V15.5A2,2,0,0,0,28,13.5ZM11.35,12h0ZM4,16.08V15.5H5.17v.58Zm3.17,3.09V12.83H8.26v6.34Zm4.18.83H10.26V12h1.09v8Zm2-3.92V15.5h5.3v.58ZM21.74,20H20.65V12h1.09v8Zm3.09-.83H23.74V12.83h1.09v6.34ZM28,16.08H26.83V15.5H28Z"/></svg>