<svg id="Layer_1" data-name="Layer 1" xmlns="http://www.w3.org/2000/svg" viewBox="0 0 32 32"><defs><style>.cls-1{fill:#747987;}</style></defs><title>Heartrate</title><path class="cls-1" d="M9.08,14.47l1-1.79,4.75,8.68a1,1,0,0,0,.88.52h0a1,1,0,0,0,.87-.6l2-4.52h5.66A15,15,0,0,1,23.21,18l-7.49,7.49L8.24,18a1,1,0,0,0-1.42,1.42L15,27.64a1,1,0,0,0,1.41,0l8.22-8.22a17.48,17.48,0,0,0,2.43-3.25s0,0,0,0c2.41-4.27,1.79-8.27-.51-10.45S20,3.12,15.71,7.15C13,4.72,10,3.75,7.35,4.48A5.55,5.55,0,0,0,3.41,8.56a1,1,0,0,0,.74,1.21A1,1,0,0,0,5.35,9,3.54,3.54,0,0,1,7.89,6.41C10,5.82,12.65,6.88,15,9.25a1,1,0,0,0,.72.3,1.05,1.05,0,0,0,.71-.31c3.59-3.77,7-3.77,8.75-2.1,1.59,1.51,2,4.41.36,7.62H18a1,1,0,0,0-.92.6l-1.41,3.25L11,10.15a1,1,0,0,0-.87-.52,1,1,0,0,0-.87.51L7.64,13H4.38a1,1,0,0,0,0,2H8.22A1,1,0,0,0,9.08,14.47Z"/></svg>