<svg id="Layer_1" data-name="Layer 1" xmlns="http://www.w3.org/2000/svg" viewBox="0 0 32 32"><defs><style>.cls-1{fill:#747987;}</style></defs><title>Hockey</title><path class="cls-1" d="M28.72,5c-.41-.65-1.26-.7-2-.7H25a2.07,2.07,0,0,0-1.88,1.51L15.4,19.63H7.32a2,2,0,0,0-2,2v3.12a2,2,0,0,0,2,2H18.68a2,2,0,0,0,2-1.76L28.6,6.65l0-.11a1,1,0,0,1,.07-.15A1.46,1.46,0,0,0,28.72,5Zm-10,19.59v.21H7.32V21.63h9.25l8.33-15c.05-.11.13-.3.19-.4h1.5Z"/><path class="cls-1" d="M7.81,8.61a2,2,0,0,0-2,2v3.53a2,2,0,0,0,2,2h5.61a2,2,0,0,0,2-2V10.61a2,2,0,0,0-2-2Zm5.61,2v.77H7.81v-.77ZM7.81,14.14v-.76h5.61v.76Z"/></svg>