<svg id="Layer_1" data-name="Layer 1" xmlns="http://www.w3.org/2000/svg" viewBox="0 0 32 32"><defs><style>.cls-1{fill:#747987;}</style></defs><title>Jersey</title><path class="cls-1" d="M13.34,5.76H9.75a1,1,0,0,0-.38.07A1.27,1.27,0,0,0,9,6.05L4.12,11a1,1,0,0,0-.29.74,1,1,0,0,0,.34.72l4.58,4v8.79a1,1,0,0,0,1,1h12.5a1,1,0,0,0,1-1V16.45l4.58-4a1,1,0,0,0,.34-.72,1,1,0,0,0-.29-.74L23,6.05a1.27,1.27,0,0,0-.33-.22,1,1,0,0,0-.38-.07H19.09a1,1,0,0,0-.71.29,1.05,1.05,0,0,0-.29.71v.35A1.86,1.86,0,0,1,16.22,9a1.88,1.88,0,0,1-1.88-1.87V6.76A1,1,0,0,0,13.34,5.76Zm-7,5.87L8.75,9.17v4.62Zm17,2.16V9.17l2.46,2.46Zm-7-2.79A3.83,3.83,0,0,0,19,9.86,3.79,3.79,0,0,0,20,7.76h1.21V24.24H10.75V7.76h1.64A3.89,3.89,0,0,0,16.22,11Z"/><polygon class="cls-1" points="15.27 22.19 17.43 22.19 17.43 13.71 14 13.71 14 15.63 15.27 15.63 15.27 22.19"/></svg>