<svg id="Layer_1" data-name="Layer 1" xmlns="http://www.w3.org/2000/svg" viewBox="0 0 32 32"><defs><style>.cls-1{fill:#747987;}</style></defs><title>Measurement Body</title><path class="cls-1" d="M14.56,18a.5.5,0,0,0,.5-.5v-1a.5.5,0,0,0-.5-.5.5.5,0,0,0-.5.5v1A.5.5,0,0,0,14.56,18Z"/><path class="cls-1" d="M26.23,8.38H22.71c.27-1.31.54-2.14.54-2.15a1,1,0,0,0-.95-1.31H6.7a1,1,0,0,0-1,1.21c0,.1,2,9.51,0,14.68a15.5,15.5,0,0,0-1,5.24,1,1,0,0,0,1,1h0a1,1,0,0,0,1-1,13.57,13.57,0,0,1,.86-4.58c.08-.2.14-.41.21-.61a24,24,0,0,0,6.72,1.25,22.48,22.48,0,0,0,6.62-1.26c.06.2.11.41.18.61a15.6,15.6,0,0,1,1,4.61,1,1,0,0,0,1,.95h.05a1,1,0,0,0,.95-1,18.18,18.18,0,0,0-1.1-5.2,19.47,19.47,0,0,1-1.09-6.25h4.08a1,1,0,0,0,1-1V9.38A1,1,0,0,0,26.23,8.38ZM20.65,19a21.11,21.11,0,0,1-6.09,1.19A22.08,22.08,0,0,1,8.31,19c.76-4.37,0-9.68-.4-12H21c-.1.41-.21.9-.32,1.46H13.49a1,1,0,0,0-1,1v4.2a1,1,0,0,0,1,1h6.66A23.79,23.79,0,0,0,20.65,19Zm4.58-6.4h-.42v-1.1a.5.5,0,0,0-.5-.5.5.5,0,0,0-.5.5v1.1H23v-1.1a.5.5,0,0,0-.5-.5.5.5,0,0,0-.5.5v1.1h-.73v-1.1a.5.5,0,0,0-.5-.5.5.5,0,0,0-.5.5v1.1h-.73v-1.1a.5.5,0,0,0-.5-.5.5.5,0,0,0-.5.5v1.1h-.7v-1.1a.5.5,0,0,0-.5-.5.5.5,0,0,0-.5.5v1.1h-.69v-1.1a.5.5,0,0,0-.5-.5.5.5,0,0,0-.5.5v1.1h-.7v-2.2H25.23Z"/></svg>