<svg id="Layer_1" data-name="Layer 1" xmlns="http://www.w3.org/2000/svg" viewBox="0 0 32 32"><defs><style>.cls-1{fill:#747987;}</style></defs><title>Offside ( Flag )</title><path class="cls-1" d="M26.52,5.22a1.31,1.31,0,0,0-1.45.22c-.1.08-2.36,1.8-7.07-.15a11.91,11.91,0,0,0-8.87-.45A2.61,2.61,0,0,0,4.3,6.22V25.78a2.62,2.62,0,1,0,5.23,0V20.61c1-.45,3.73-1.27,7.72.32l.52.19.14.05a13.74,13.74,0,0,0,4.57.93,5,5,0,0,0,4-1.43l.19-.18A3.65,3.65,0,0,0,27.7,17.9V7.22A2.28,2.28,0,0,0,26.52,5.22ZM25.7,7.39v5.19c-.74.36-2.72,1-6.49,0V7.81A8.83,8.83,0,0,0,25.7,7.39Zm-8.49-.26V12a14.46,14.46,0,0,0-7.68-.26V6.82A9.78,9.78,0,0,1,17.21,7.13ZM7.53,25.78a.61.61,0,0,1-.61.62.62.62,0,0,1-.62-.62V6.22a.62.62,0,0,1,.62-.62.61.61,0,0,1,.61.62V25.78Zm2-7.3V13.81a12.29,12.29,0,0,1,7.68.26V18.8a13.77,13.77,0,0,0-4.46-.8A10.42,10.42,0,0,0,9.53,18.48Zm15.68.59-.28.29s-1.43,1.52-5.72.15V14.62a16.85,16.85,0,0,0,3.75.49,9.23,9.23,0,0,0,2.74-.38V17.9A1.62,1.62,0,0,1,25.21,19.07Z"/></svg>