<svg id="Layer_1" data-name="Layer 1" xmlns="http://www.w3.org/2000/svg" viewBox="0 0 32 32"><defs><style>.cls-1{fill:#747987;}</style></defs><title>Pants</title><path class="cls-1" d="M5.37,23.32l5,2.9a1.86,1.86,0,0,0,1,.26,1.79,1.79,0,0,0,.51-.07,1.88,1.88,0,0,0,1.17-.91L16,20.3,19,25.5a1.88,1.88,0,0,0,1.17.91,1.79,1.79,0,0,0,.51.07,1.86,1.86,0,0,0,1-.26l5-2.89a2,2,0,0,0,1-1.91L26.17,9.35a2.18,2.18,0,0,0,.13-.72V7.52a2,2,0,0,0-2-2H7.7a2,2,0,0,0-2,2V8.63a2.18,2.18,0,0,0,.13.72L4.41,21.42A1.93,1.93,0,0,0,5.37,23.32ZM7.7,10.63h2a6,6,0,0,1-1.28,3.46,2.77,2.77,0,0,1-1.19.73l.5-4.19Zm3.7,13.86-5-2.83L7,16.92a4.78,4.78,0,0,0,2.88-1.45,8.07,8.07,0,0,0,1.84-4.84H15V18Zm9.29,0L17,18V10.63h3.33a8,8,0,0,0,1.83,4.84,4.86,4.86,0,0,0,2.91,1.45l.56,4.67ZM24.3,10.63h0l.51,4.2a2.76,2.76,0,0,1-1.2-.74,5.84,5.84,0,0,1-1.28-3.46ZM7.7,7.52H24.3V8.63H7.7Z"/></svg>