<svg id="Layer_1" data-name="Layer 1" xmlns="http://www.w3.org/2000/svg" viewBox="0 0 32 32"><defs><style>.cls-1{fill:#747987;}</style></defs><title>Racket</title><path class="cls-1" d="M22.53,20a2.55,2.55,0,0,0,2.18,1.21h2a2.58,2.58,0,0,0,2.58-2.58v-.77a2.57,2.57,0,0,0-2.58-2.57H25.56A.57.57,0,0,1,25,15a8,8,0,0,0-4.66-4.54,4.49,4.49,0,1,0-6.55.11A9.52,9.52,0,0,0,8.89,15a.56.56,0,0,1-.49.31H7.35a2.58,2.58,0,0,0-2.58,2.57v.48A2.59,2.59,0,0,0,7.35,21H9.71a2.57,2.57,0,0,0,2.13-1.13l.16-.24v2.16l-2-.28a3.74,3.74,0,1,0-.54,7.45,3.27,3.27,0,0,0,.54,0l7.28-1,7.28,1a3.27,3.27,0,0,0,.54,0,3.75,3.75,0,0,0,3.74-3.74,3.78,3.78,0,0,0-1.3-2.84,3.7,3.7,0,0,0-3-.87l-2.23.32v-2ZM17.05,4.92a2.5,2.5,0,1,1-2.5,2.5A2.5,2.5,0,0,1,17.05,4.92Zm-7.3,22a1.75,1.75,0,0,1-1.39-.41,1.69,1.69,0,0,1-.6-1.31A1.75,1.75,0,0,1,9.5,23.42l.26,0,3,.42,0,.07-.07.11a1.63,1.63,0,0,0-.11.23l-.06.12c0,.09,0,.18-.07.26a.53.53,0,0,0,0,.12,2,2,0,0,0,0,.8.79.79,0,0,0,0,.13,2.17,2.17,0,0,0,.07.24l.06.15.09.18a1,1,0,0,0,.11.17v0Zm15.14-3.45.26,0a1.69,1.69,0,0,1,1.12.43,1.72,1.72,0,0,1,.61,1.32,1.73,1.73,0,0,1-2,1.72L19,26.05l-4.4-.63h-.08a.25.25,0,0,1-.22-.24c0-.13.1-.24.3-.26Zm-7.56-.94L14,22V17.5a1.36,1.36,0,0,0-2.49-.76l-1.32,2a.61.61,0,0,1-.48.25H7.35a.58.58,0,0,1-.58-.58v-.48a.58.58,0,0,1,.58-.57H8.4a2.57,2.57,0,0,0,2.26-1.38,7.23,7.23,0,0,1,6.62-4,6,6,0,0,1,5.9,3.8,2.56,2.56,0,0,0,2.38,1.6h1.18a.58.58,0,0,1,.58.57v.77a.58.58,0,0,1-.58.58h-2a.55.55,0,0,1-.48-.27l-1.32-2.11a1.37,1.37,0,0,0-2.53.72v4.48Z"/></svg>