<svg id="Layer_1" data-name="Layer 1" xmlns="http://www.w3.org/2000/svg" viewBox="0 0 32 32"><defs><style>.cls-1{fill:#747987;}</style></defs><title>Rugby</title><path class="cls-1" d="M4.31,23.37c.75,1.32,2.76,2,3.89,2.26a16.34,16.34,0,0,0,3.89.46,16.3,16.3,0,0,0,8.76-2.45c6.27-4,8.25-12.32,6.86-15-.52-1-1.83-1.81-3.68-2.31a17,17,0,0,0-12.88,2C5,12.29,2.8,20.73,4.31,23.37Zm1.74-1A4.3,4.3,0,0,1,5.93,20l2.25,3.55A4,4,0,0,1,6.05,22.38ZM25.94,9.59h0A4.61,4.61,0,0,1,26.05,12l-2.29-3.6A3.94,3.94,0,0,1,25.94,9.59Zm-13.72.46A14.94,14.94,0,0,1,20.1,7.88c.34,0,.68,0,1,0l4.27,6.72A14.35,14.35,0,0,1,19.78,22,14.85,14.85,0,0,1,10.85,24L6.61,17.35A14.38,14.38,0,0,1,12.22,10.05Z"/><path class="cls-1" d="M9.78,16.58l1,1.56-.51.32a1,1,0,0,0,.54,1.85.94.94,0,0,0,.53-.16l.51-.32,1,1.55a1,1,0,0,0,.85.47.94.94,0,0,0,.53-.16,1,1,0,0,0,.31-1.38l-1-1.55,2.17-1.38,1,1.56a1,1,0,0,0,.85.46,1,1,0,0,0,.53-.15,1,1,0,0,0,.31-1.38l-1-1.56L19.53,15l1,1.55a1,1,0,1,0,1.68-1.07l-1-1.55.52-.34a1,1,0,0,0,.31-1.38,1,1,0,0,0-1.38-.31l-.53.34-1-1.56a1,1,0,0,0-1.69,1.07l1,1.56-2.15,1.36-1-1.55a1,1,0,1,0-1.69,1.07l1,1.56-2.17,1.37-1-1.56a1,1,0,1,0-1.68,1.07Z"/></svg>