<svg id="Layer_1" data-name="Layer 1" xmlns="http://www.w3.org/2000/svg" viewBox="0 0 32 32"><defs><style>.cls-1{fill:#747987;}</style></defs><title>Scale</title><path class="cls-1" d="M25.89,8.5a2,2,0,0,0-1.44-.62H21.28a5.37,5.37,0,0,0-10.56,0H7.55a2,2,0,0,0-1.44.62,2,2,0,0,0-.55,1.42L5.45,27a2,2,0,0,0,2,1.89h17.1a2,2,0,0,0,2-2l-.11-17A2,2,0,0,0,25.89,8.5ZM16,5.5a3.36,3.36,0,0,1,1,6.58V10.67a1,1,0,0,0-2,0v1.41A3.36,3.36,0,0,1,16,5.5Zm1,21.4V20.67a1,1,0,0,0-2,0v6.24l-7.55,0,.1-17.06h3.16l0,0a1.29,1.29,0,0,0,.08.28,4.11,4.11,0,0,0,.21.68,2,2,0,0,0,.16.33,4.63,4.63,0,0,0,.29.54,2.62,2.62,0,0,0,.23.32,5.45,5.45,0,0,0,.38.46l.28.28a5.54,5.54,0,0,0,.45.37l.32.23a5.61,5.61,0,0,0,.54.29l.34.16c.21.08.43.14.65.2a2.8,2.8,0,0,0,.31.09,5.35,5.35,0,0,0,2.06,0c.11,0,.21-.06.32-.09s.43-.12.64-.2l.34-.16a4.49,4.49,0,0,0,.53-.29,3.88,3.88,0,0,0,.33-.23,5.54,5.54,0,0,0,.45-.37l.29-.28c.13-.15.25-.3.37-.46a3.71,3.71,0,0,0,.23-.32,4.63,4.63,0,0,0,.29-.54,2.49,2.49,0,0,0,.16-.33,5.39,5.39,0,0,0,.22-.68,2.86,2.86,0,0,0,.07-.28s0,0,0,0h3.15v0l.11,17Z"/></svg>