<svg id="Layer_1" data-name="Layer 1" xmlns="http://www.w3.org/2000/svg" viewBox="0 0 32 32"><defs><style>.cls-1{fill:#747987;}</style></defs><title>Shuttlecock</title><path class="cls-1" d="M16.56,3.92A12.08,12.08,0,1,0,28.65,16,12.09,12.09,0,0,0,16.56,3.92ZM25.19,21.2H21.81l.07-.05-2.2-3,.77-2.34,3.22-1,2.93,2.13A9.94,9.94,0,0,1,25.19,21.2Zm-3.4,2h1.82a9.94,9.94,0,0,1-2.38,1.73Zm-10.46,0,.57,1.73A9.94,9.94,0,0,1,9.52,23.2Zm.22-2H7.94a10.08,10.08,0,0,1-1.42-4.33l2.93-2.13,3.23,1,.87,2.66Zm-4-9.67.56,1.72L6.63,14.32A10,10,0,0,1,7.54,11.53Zm7.91,6.3-.69-2.12,1.8-1.31,1.81,1.31-.69,2.12ZM25,13.25l.56-1.73a9.87,9.87,0,0,1,.9,2.8ZM24.17,9.4l-1.11,3.44L19.43,14l-1.87-1.36V8.85L20.5,6.72A10.08,10.08,0,0,1,24.17,9.4ZM18,6,16.56,7.1,15.09,6a10.29,10.29,0,0,1,1.47-.12A10.17,10.17,0,0,1,18,6Zm-5.4.68,2.93,2.13v3.81L13.69,14l-3.62-1.18L9,9.4A10.08,10.08,0,0,1,12.63,6.72Zm1.66,19.09-1.12-3.44L15,19.83h3.44l1.61,2.22-1.22,3.76a9.72,9.72,0,0,1-4.55,0Z"/></svg>