<svg id="Layer_1" data-name="Layer 1" xmlns="http://www.w3.org/2000/svg" viewBox="0 0 32 32"><defs><style>.cls-1{fill:#747987;}</style></defs><title>Six Pack</title><path class="cls-1" d="M28.66,5.79a1,1,0,0,0-.07-.18.5.5,0,0,0-.1-.19s0,0,0-.06a.24.24,0,0,0-.08-.06.75.75,0,0,0-.17-.14l-.14-.07A.79.79,0,0,0,27.85,5h-.17s-.08,0-.12,0,0,0-.08,0l-.18.06-.18.1-.07,0A13.06,13.06,0,0,1,19.65,8a3.15,3.15,0,0,1-2.43-.71,1,1,0,0,1-.17-.36,3.3,3.3,0,0,0,0-.78A1,1,0,0,0,16.35,5a1.23,1.23,0,0,0-.19,0h-.42A1,1,0,0,0,15,6.14a3.38,3.38,0,0,0,0,.79,1,1,0,0,1-.17.36A3.15,3.15,0,0,1,12.42,8,14.13,14.13,0,0,1,4.8,5.22s-.07,0-.1,0l-.19-.1L4.33,5,4.21,5H4.12L4,5a1,1,0,0,0-.26.08l-.08,0a1.24,1.24,0,0,0-.22.18s0,0,0,0,0,0,0,.08a1.86,1.86,0,0,0-.1.2,1.8,1.8,0,0,0,0,.19s0,.08,0,.11c0,.33-.26,8,1.37,11.69,1.51,3.45,1,7.7.15,8.7A1,1,0,0,0,5.46,28H26.28a1,1,0,0,0,.84-.45,1,1,0,0,0,.08-.95,13,13,0,0,1,.08-9.24,24.65,24.65,0,0,0,1.4-11.5S28.66,5.81,28.66,5.79ZM25.43,16.6A14.86,14.86,0,0,0,24.9,26H7.07a14.55,14.55,0,0,0-.69-9.15c-1-2.28-1.2-6.56-1.22-9A14.9,14.9,0,0,0,12.42,10,5.21,5.21,0,0,0,16,8.89,5.26,5.26,0,0,0,19.65,10a14.25,14.25,0,0,0,7.18-2.18A22.14,22.14,0,0,1,25.43,16.6Z"/><path class="cls-1" d="M21.38,12.49A3.61,3.61,0,0,1,17,12.41v-.53a1,1,0,0,0-2,0v.53a3.3,3.3,0,0,1-4.32.13,1,1,0,0,0-1.41.13,1,1,0,0,0,.13,1.4,5.52,5.52,0,0,0,3.43,1.24A5.15,5.15,0,0,0,16,14.17a5.17,5.17,0,0,0,3.09,1,6.15,6.15,0,0,0,3.44-1.09,1,1,0,0,0-1.16-1.63Z"/><path class="cls-1" d="M21.38,17.19A3.61,3.61,0,0,1,17,17.11v-.53a1,1,0,0,0-2,0v.54a3.29,3.29,0,0,1-4.32.12A1,1,0,1,0,9.4,18.78,5.58,5.58,0,0,0,12.83,20,5.15,5.15,0,0,0,16,18.87a5.1,5.1,0,0,0,3.09,1,6.23,6.23,0,0,0,3.44-1.08,1,1,0,0,0-1.16-1.64Z"/><path class="cls-1" d="M21.38,21.79A3.64,3.64,0,0,1,17,21.71v-.78a1,1,0,0,0-2,0v.78a3.28,3.28,0,0,1-4.32.12A1,1,0,1,0,9.4,23.37a5.52,5.52,0,0,0,3.43,1.23A5.2,5.2,0,0,0,16,23.47a5.15,5.15,0,0,0,3.09,1,6.15,6.15,0,0,0,3.44-1.08,1,1,0,0,0-1.16-1.63Z"/></svg>