<svg id="Layer_1" data-name="Layer 1" xmlns="http://www.w3.org/2000/svg" viewBox="0 0 32 32"><defs><style>.cls-1{fill:#747987;}</style></defs><title>Skateboard</title><path class="cls-1" d="M26.22,10.18,26,10.09a1.64,1.64,0,0,0-.33-.14,6.24,6.24,0,0,0-3-5.21,6.23,6.23,0,0,0-6,.17,2.11,2.11,0,0,0-.29-.2l-.17-.09a2.26,2.26,0,0,0-3.07.87l-1.64,3a2.22,2.22,0,0,0-.2,1.71,2.27,2.27,0,0,0,.4.79L9.62,14.68a2.19,2.19,0,0,0-.88.07,2.26,2.26,0,0,0-1.35,1.07l-1.65,3a2.26,2.26,0,0,0-.2,1.71,2.29,2.29,0,0,0,1.08,1.36l.16.09a6.4,6.4,0,0,0,3,5.94,5.62,5.62,0,0,0,2.75.7,7.18,7.18,0,0,0,3.9-1.26h0l.17.09a2.22,2.22,0,0,0,1.09.29,2.28,2.28,0,0,0,.63-.09,2.24,2.24,0,0,0,1.35-1.08l1.64-3a2.18,2.18,0,0,0,.2-1.71,2.27,2.27,0,0,0-.4-.79l2.07-3.74a1.46,1.46,0,0,0,.87-.05,2.29,2.29,0,0,0,1.36-1.08l1.64-3A2.27,2.27,0,0,0,26.22,10.18Zm-6.75,10a2.29,2.29,0,0,0-1.82.63l-5.93-3.3a2.14,2.14,0,0,0-.43-1.87l2.08-3.74a1.9,1.9,0,0,0,.25,0,2.7,2.7,0,0,0,.62-.08,2.25,2.25,0,0,0,.94-.56l5.93,3.29a2.16,2.16,0,0,0,0,1.1,2.22,2.22,0,0,0,.4.78Zm-8.79-.56.21-.38,5.74,3.19-.42.76L10.47,20Zm11.48-7.14-.22.38L16.2,9.64l.43-.76,5.74,3.19Zm-.41-6a4.37,4.37,0,0,1,2.06,3.72,1.8,1.8,0,0,0-.42.32l-5.93-3.3a1.84,1.84,0,0,0,.05-.52A4.36,4.36,0,0,1,21.75,6.41Zm-8.6,3,1.65-3a.34.34,0,0,1,.3-.17.32.32,0,0,1,.16,0l.17.09a.35.35,0,0,1,.13.47l-1.64,3a.35.35,0,0,1-.47.13l-.17-.09a.39.39,0,0,1-.16-.2A.36.36,0,0,1,13.15,9.39ZM7.41,19.72l1.65-3a.37.37,0,0,1,.21-.16.34.34,0,0,1,.25,0l.17.09a.32.32,0,0,1,.16.21.31.31,0,0,1,0,.26l-1.65,3a.32.32,0,0,1-.2.15.31.31,0,0,1-.26,0l-.17-.1a.37.37,0,0,1-.17-.2A.36.36,0,0,1,7.41,19.72Zm3.34,6.5a4.51,4.51,0,0,1-2.06-4.15,2.19,2.19,0,0,0,.75-.48l5.93,3.3a2.22,2.22,0,0,0,0,.89A4.48,4.48,0,0,1,10.75,26.22Zm8.93-3.57-1.65,3a.39.39,0,0,1-.2.16.36.36,0,0,1-.26,0l-.17-.1a.31.31,0,0,1-.16-.2.32.32,0,0,1,0-.26l.82-1.48.83-1.48a.32.32,0,0,1,.29-.18.47.47,0,0,1,.17,0l.17.1A.34.34,0,0,1,19.68,22.65Zm5.74-10.33-1.65,3a.37.37,0,0,1-.2.17.36.36,0,0,1-.26,0l-.17-.1a.31.31,0,0,1-.16-.2.32.32,0,0,1,0-.26l1.64-3a.35.35,0,0,1,.47-.13l.16.1A.34.34,0,0,1,25.42,12.32Z"/></svg>