<svg id="Layer_1" data-name="Layer 1" xmlns="http://www.w3.org/2000/svg" viewBox="0 0 32 32"><defs><style>.cls-1{fill:#747987;}</style></defs><title>Skating</title><path class="cls-1" d="M27.85,20.92V6.77a1.87,1.87,0,0,0-1.75-2,3.69,3.69,0,0,0-3.44,2.39l-4.2,0a7.77,7.77,0,0,0,.6-1.8,2,2,0,0,0-1.17-2.21,2,2,0,0,0-2.42.66A18.5,18.5,0,0,0,14,7c-1.17,3-3.13,8-5.33,8-2,0-3.35.6-4.13,1.78a5.22,5.22,0,0,0-.39,4.14,2,2,0,0,0-.77,1.56v.6a2,2,0,0,0,2,2H9.9V28H5.38v-.6a1,1,0,0,0,0-2,2,2,0,0,0-2,2V28a2,2,0,0,0,2,2H26.62a2,2,0,0,0,2-2v-.6a1,1,0,0,0-2,0V28H24.21V25.08h2.41a2,2,0,0,0,2-2v-.6A2,2,0,0,0,27.85,20.92Zm-21.64-3A2.8,2.8,0,0,1,8.67,17a3.62,3.62,0,0,0,1.79-.49l2.21,2.2a1,1,0,0,0,.7.3,1,1,0,0,0,.71-1.71L12,15.22A11.58,11.58,0,0,0,12.91,14l2.33,2.33a1,1,0,0,0,.71.29,1,1,0,0,0,.71-.29,1,1,0,0,0,0-1.42l-2.37-2.37a1.16,1.16,0,0,0-.4-.23c.77-1.49,1.41-3.13,2-4.57A18.39,18.39,0,0,1,17.1,5a5.73,5.73,0,0,1-.45,1.32,2.06,2.06,0,0,0,.12,2,2,2,0,0,0,1.68.92h3.63a14.16,14.16,0,0,0-.16,2.2,1,1,0,0,0,2,0c0-1.32.19-4.32,1.93-4.58V14l-2.68.1a1,1,0,0,0,0,2h0L25.85,16V17l-2.68.1a1,1,0,0,0,0,2h0L25.85,19v1.51H6.1A3.49,3.49,0,0,1,6.21,17.88ZM22.21,28H11.9V25.08H22.21ZM5.38,23.08v-.6H26.62v.6Z"/></svg>