<svg id="Layer_1" data-name="Layer 1" xmlns="http://www.w3.org/2000/svg" viewBox="0 0 32 32"><defs><style>.cls-1{fill:#747987;}</style></defs><title>Skipping Rope</title><path class="cls-1" d="M28.08,18.28V14.81a11.84,11.84,0,0,0-11.16-12c-.3,0-.61,0-.92,0a8,8,0,0,0-3.6.85A12.09,12.09,0,0,0,5,14.81v3.51a2.67,2.67,0,0,0-1.22,2.25v5.62a2.69,2.69,0,1,0,5.37,0V20.57A2.69,2.69,0,0,0,7,17.93V14.81a10.31,10.31,0,0,1,.89-4.21,1.77,1.77,0,0,0,0,.23A8.13,8.13,0,1,0,23.65,8.12a10.31,10.31,0,0,1,2.43,6.69V18A2.69,2.69,0,0,0,24,20.57v5.62a2.69,2.69,0,1,0,5.38,0V20.57A2.71,2.71,0,0,0,28.08,18.28ZM7.15,26.19a.69.69,0,0,1-.69.69.68.68,0,0,1-.68-.69V20.57a.68.68,0,0,1,.68-.69.69.69,0,0,1,.69.69ZM14.94,4.9a8.94,8.94,0,0,1,1.48-.15,3.33,3.33,0,1,1-1.48.15ZM16,17a6.13,6.13,0,0,1-5.3-9.19c0,.09,0,.17,0,.26A5.32,5.32,0,1,0,21.32,8c0-.09,0-.17,0-.26A6.11,6.11,0,0,1,16,17Zm11.38,9.23a.69.69,0,0,1-1.38,0V20.57a.69.69,0,0,1,1.38,0Z"/></svg>