<svg id="Layer_1" data-name="Layer 1" xmlns="http://www.w3.org/2000/svg" viewBox="0 0 32 32"><defs><style>.cls-1{fill:#747987;}</style></defs><title>Slim Body</title><path class="cls-1" d="M6.52,18.85h0a19.65,19.65,0,0,0,.74,9.19,1,1,0,0,0,.94.66H23.8a1,1,0,0,0,.89-.55c.11-.21,2.57-5.22,0-12-.14-.37-.25-.72-.36-1.07l-.09-.3c-1.66-5.7.26-8.86.35-9a1,1,0,0,0-.84-1.55H8.2a1,1,0,0,0-.94,1.35c0,.05,2,5.44,0,10.54A14.26,14.26,0,0,0,6.52,18.85Zm16.88-.11c-2.23,1.68-5.78,4-7.33,4s-5.22-2.33-7.48-4a12,12,0,0,1,.54-1.87c.08-.21.13-.41.2-.61a24,24,0,0,0,6.74,1.25,22.77,22.77,0,0,0,6.57-1.24ZM8.29,21c1.73,1.23,4.63,3.11,6.78,3.62v2.14H8.94A18.71,18.71,0,0,1,8.29,21Zm14.84,5.76H17.07V24.57c2.15-.52,5-2.42,6.73-3.65A13.86,13.86,0,0,1,23.13,26.71Zm-.87-20.5a14.69,14.69,0,0,0-.16,8.08,20.74,20.74,0,0,1-6,1.17,22.66,22.66,0,0,1-6.24-1.19,19.37,19.37,0,0,0-.29-8.06Z"/><path class="cls-1" d="M16.07,13.29a.5.5,0,0,0,.5-.5v-1a.51.51,0,0,0-.5-.5.5.5,0,0,0-.5.5v1A.5.5,0,0,0,16.07,13.29Z"/></svg>