<svg id="Layer_1" data-name="Layer 1" xmlns="http://www.w3.org/2000/svg" viewBox="0 0 32 32"><defs><style>.cls-1{fill:#747987;}</style></defs><title>Stadion</title><path class="cls-1" d="M16,5.76C9.93,5.76,5.17,8.37,5.17,11.7h0v11c0,1,1,1.58,1.41,1.76A17.35,17.35,0,0,0,12.12,26v0l.9.09c1,.1,2,.15,3.05.15a21.85,21.85,0,0,0,9.31-1.8c.34-.16,1.44-.73,1.44-1.78V12.28h0a3.68,3.68,0,0,0,0-.58C26.83,8.37,22.07,5.76,16,5.76Zm0,2c5.2,0,8.83,2.08,8.83,3.94A2,2,0,0,1,24.28,13,15.77,15.77,0,0,0,16,10.91,15.77,15.77,0,0,0,7.72,13a2,2,0,0,1-.55-1.28C7.17,9.84,10.8,7.76,16,7.76Zm6.54,6.53A14.71,14.71,0,0,1,16,15.65a14.71,14.71,0,0,1-6.54-1.36A14.85,14.85,0,0,1,16,12.91,14.85,14.85,0,0,1,22.54,14.29ZM7.44,22.61a1.48,1.48,0,0,1-.27-.16V21A12.08,12.08,0,0,0,12.12,23V24A14.74,14.74,0,0,1,7.44,22.61Zm6.68,1.56V22.84a3.89,3.89,0,0,1,0-.49,2.25,2.25,0,0,1,1.92-2.14,1.72,1.72,0,0,1,1.32.71,2.9,2.9,0,0,1,.6,1.42,2.74,2.74,0,0,1,0,.5v1.32c-.62.05-1.27.08-2,.08S14.77,24.22,14.12,24.17Zm10.7-1.72a1.4,1.4,0,0,1-.3.18A17.57,17.57,0,0,1,20,23.92V23a12.06,12.06,0,0,0,4.78-2ZM19.73,21A4.79,4.79,0,0,0,19,19.65a3.69,3.69,0,0,0-2.87-1.44,4,4,0,0,0-3.64,2.85c-3.06-.64-5.27-2.12-5.27-3.59V15.18A14.85,14.85,0,0,0,16,17.65c3.68,0,6.88-1,8.82-2.47v2.29C24.82,18.93,22.73,20.37,19.73,21Z"/></svg>