<svg id="Layer_1" data-name="Layer 1" xmlns="http://www.w3.org/2000/svg" viewBox="0 0 32 32"><defs><style>.cls-1{fill:#747987;}</style></defs><title>Stopwatch</title><path class="cls-1" d="M5.1,9.71a1.9,1.9,0,0,0,1.25.82,1.61,1.61,0,0,0,.37,0,.86.86,0,0,0,.17,0A11.1,11.1,0,1,0,25,10.48a2.51,2.51,0,0,0,.27,0l.37,0a2,2,0,0,0,1.25-.82l.24-.37a1.94,1.94,0,0,0-.51-2.71l-3.3-2.25a2,2,0,0,0-2.71.52l-.25.36a2,2,0,0,0-.31,1.37A11.1,11.1,0,0,0,16,5.8a11,11,0,0,0-4,.77,2,2,0,0,0-.32-1.3l-.25-.36a2,2,0,0,0-2.71-.52L5.37,6.64a1.94,1.94,0,0,0-.51,2.71Zm20,7.19A9.1,9.1,0,1,1,16,7.8,9.1,9.1,0,0,1,25.07,16.9Z"/><path class="cls-1" d="M15.6,19.7a1,1,0,0,0,.78.38,1,1,0,0,0,.61-.2l4.08-3.12a1,1,0,0,0-1.22-1.59l-3.29,2.52L12.9,13a1,1,0,0,0-1.57,1.24Z"/></svg>