<svg id="Layer_1" data-name="Layer 1" xmlns="http://www.w3.org/2000/svg" viewBox="0 0 32 32"><defs><style>.cls-1{fill:#747987;}</style></defs><title>Strength</title><path class="cls-1" d="M16.35,11.91a2.73,2.73,0,1,0-2.72-2.72A2.72,2.72,0,0,0,16.35,11.91Zm0-3.45a.73.73,0,0,1,.72.73.72.72,0,0,1-1.44,0A.73.73,0,0,1,16.35,8.46Z"/><path class="cls-1" d="M9.47,26.74A24.15,24.15,0,0,0,18,28c3.58,0,7-.51,8.15-1.39,1.51-1.13,2.57-4.12,2.36-6.68A4.93,4.93,0,0,0,26,15.75c-3.43-1.79-6.52,1.34-7.48,2.47a7.3,7.3,0,0,0-4.26.15c0-.18,0-.35,0-.53a5.15,5.15,0,0,1,.86-3s0,0,0-.06a5.76,5.76,0,0,0,1.18.13,5.69,5.69,0,1,0-5.69-5.69,4.52,4.52,0,0,0,.06.74c-.88,1.39-5.52,8.75-6.09,10.8C3.79,23.78,5.45,25.05,9.47,26.74ZM16.35,5.5a3.69,3.69,0,1,1-3.69,3.69A3.69,3.69,0,0,1,16.35,5.5ZM6.56,21.26c.33-1.21,2.93-5.59,5-9A5.83,5.83,0,0,0,13.3,14a7,7,0,0,0-1,4,7.39,7.39,0,0,1-.65,3.38,1,1,0,0,0,.45,1.34.87.87,0,0,0,.44.11,1,1,0,0,0,.9-.55A9.67,9.67,0,0,0,14,20.61c1-.45,3.65-1.41,5.52.46a1,1,0,0,0,1.42,0,1,1,0,0,0,0-1.41,4.92,4.92,0,0,0-.56-.48c.91-1,2.85-2.64,4.72-1.66a3,3,0,0,1,1.43,2.58c.17,2.16-.81,4.35-1.57,4.92-1.38,1-10.58,1.62-14.71-.12S6.22,22.5,6.56,21.26Z"/></svg>