<svg id="Layer_1" data-name="Layer 1" xmlns="http://www.w3.org/2000/svg" viewBox="0 0 32 32"><defs><style>.cls-1{fill:#747987;}</style></defs><title>Suplemen</title><path class="cls-1" d="M23.66,12,24,9.34a4.44,4.44,0,0,0,.05-.62,4.72,4.72,0,0,0-9.4-.65L14,12.9,12.62,9.19A4,4,0,1,0,5.2,11.94l2.46,6.62a3.95,3.95,0,0,0,3.71,2.59,4.15,4.15,0,0,0,1.38-.25,3.63,3.63,0,0,0,1.09-.65l.17.33A4.73,4.73,0,0,0,17.89,28h0a4.64,4.64,0,0,0,3.32-1.39l6.72-6.7a4.72,4.72,0,0,0-4.28-8ZM15.47,19a2.73,2.73,0,0,1-.15-.89c0-.14,0-.27,0-.38L15.86,14l4.06.55ZM19.34,6a2.31,2.31,0,0,1,.37,0,2.74,2.74,0,0,1,2.36,2.7c0,.13,0,.26,0,.37l-.51,3.71h0l-5.38-.75.51-3.71A2.72,2.72,0,0,1,19.34,6ZM7.13,9.75a1.93,1.93,0,0,1,1.1-1,1.82,1.82,0,0,1,.68-.13,2,2,0,0,1,1.84,1.28l.91,2.45L8,13.69l-.9-2.45A1.88,1.88,0,0,1,7.13,9.75ZM12.05,19a1.91,1.91,0,0,1-1.5-.05,2,2,0,0,1-1-1.1l-.85-2.3,3.67-1.36.86,2.3A2,2,0,0,1,12.05,19Zm7.76,6.19a2.72,2.72,0,0,1-3.85,0,2.72,2.72,0,0,1,0-3.85l2.65-2.65,3.85,3.85Zm6.72-6.71-2.65,2.65L20,17.3l2.63-2.63.36-.31h0a2.73,2.73,0,0,1,4.31,2.23A2.66,2.66,0,0,1,26.53,18.5Z"/></svg>