<svg id="Layer_1" data-name="Layer 1" xmlns="http://www.w3.org/2000/svg" viewBox="0 0 32 32"><defs><style>.cls-1{fill:#747987;}</style></defs><title>Table Tennis</title><path class="cls-1" d="M7,28.79a2,2,0,0,0,2-2V23.11a5.28,5.28,0,0,0,4.32-4.19h5.43a5.28,5.28,0,0,0,4.32,4.19v3.68a2,2,0,0,0,2,2h.6a2,2,0,0,0,2-2V18.92a2.13,2.13,0,0,0,0-.25,2,2,0,0,0,1.05-1.75V15.08a2,2,0,0,0-2-2H18.23V8c0-1.14-.67-2-1.56-2H15.33c-.89,0-1.56.86-1.56,2v5.08H5.33a2,2,0,0,0-2,2v1.84A2,2,0,0,0,4.4,18.68a1.94,1.94,0,0,0,0,.24v7.87a2,2,0,0,0,2,2Zm0-2h-.6V18.92H7Zm2-5.72V18.92h2.25A3.28,3.28,0,0,1,9,21.07ZM20.8,18.92h2.25v2.15A3.28,3.28,0,0,1,20.8,18.92Zm4.85,7.87h-.6V18.92h.6Zm1-9.87v.29h0v-.29ZM15.77,8h.46v5.08h-.46ZM5.33,15.08H26.67v1.84H5.33Z"/><circle class="cls-1" cx="7" cy="9.22" r="1.69"/><path class="cls-1" d="M12.4,4.63a.51.51,0,0,0,.5-.5.5.5,0,0,0-.5-.5c-2.82,0-4.57,3-4.65,3.12a.5.5,0,0,0,.19.68.45.45,0,0,0,.25.07.5.5,0,0,0,.43-.25S10.16,4.63,12.4,4.63Z"/></svg>