<svg id="Layer_1" data-name="Layer 1" xmlns="http://www.w3.org/2000/svg" viewBox="0 0 32 32"><defs><style>.cls-1{fill:#747987;}</style></defs><title>Tennis Ball</title><path class="cls-1" d="M16,3.88A12.12,12.12,0,1,0,28.12,16,12.14,12.14,0,0,0,16,3.88Zm-6.07,4c.43,2.08.67,6.59-3.44,11.48A9.81,9.81,0,0,1,5.88,16,10.12,10.12,0,0,1,9.93,7.92ZM7.43,21.35C13.21,15,12.35,9.06,11.73,6.84a10.06,10.06,0,0,1,12.73,3.63c-1.3,1-6.21,5.61-4.65,14.89a9.85,9.85,0,0,1-3.81.76A10.11,10.11,0,0,1,7.43,21.35Zm14.24,3c-1-7.2,2.42-10.93,3.73-12.08A10,10,0,0,1,26.12,16,10.11,10.11,0,0,1,21.67,24.37Z"/></svg>