<svg id="Layer_1" data-name="Layer 1" xmlns="http://www.w3.org/2000/svg" viewBox="0 0 32 32"><defs><style>.cls-1{fill:#747987;}</style></defs><title>Treadmill</title><path class="cls-1" d="M27.46,23a3.28,3.28,0,0,0,.69-1.86v0a.51.51,0,0,0,0-.13,3.32,3.32,0,0,0-.33-1.41L25.2,9h.22a2.75,2.75,0,0,0,0-5.5h-5A4.5,4.5,0,0,0,16.05,7H15a1,1,0,0,0-1,1v3.33a1,1,0,0,0,1,1H20.3l1.35,5L7.45,16.06a3.33,3.33,0,0,0-3.62,3.31v2.37a3.29,3.29,0,0,0,1,2.4,3.1,3.1,0,0,0,.89.6l-.22.41a2.05,2.05,0,0,0,1.8,3h19.2a2.05,2.05,0,0,0,1.89-2.82Zm-7-17.48h5a.75.75,0,0,1,0,1.5H18.14A2.5,2.5,0,0,1,20.43,5.5ZM22,11.07a1,1,0,0,0-1-.74H16V9h7.17l2.17,8.68-.16,0-1.38-.12ZM5.83,19.37a1.33,1.33,0,0,1,1.32-1.32h.12L25,19.64a1.27,1.27,0,0,1,1,.66l.18.72a1.3,1.3,0,0,1-1.24,1.25l-17.7.79a1.31,1.31,0,0,1-1-.36,1.32,1.32,0,0,1-.41-1ZM7.29,26.1,7.87,25,25,24.26a3.67,3.67,0,0,0,.75-.12l.78,2Z"/><path class="cls-1" d="M8.47,21.81a1.26,1.26,0,1,0-1.25-1.25A1.26,1.26,0,0,0,8.47,21.81Z"/><path class="cls-1" d="M23.42,22.21A1.26,1.26,0,1,0,22.16,21,1.26,1.26,0,0,0,23.42,22.21Z"/></svg>