<svg id="Layer_1" data-name="Layer 1" xmlns="http://www.w3.org/2000/svg" viewBox="0 0 32 32"><defs><style>.cls-1{fill:#747987;}</style></defs><title>Volly Ball</title><path class="cls-1" d="M28,15.09a12.08,12.08,0,0,0-1-4,1,1,0,0,0-.15-.32A12.06,12.06,0,0,0,9,6.15l-.13.1a12.06,12.06,0,0,0-3.21,3.5l-.09.14a12,12,0,0,0,1.19,13.9,1.22,1.22,0,0,0,.15.17,12.07,12.07,0,0,0,21.15-8c0-.26,0-.52,0-.77ZM9.41,23.61c2.18-.94,6.05-3.11,7.41-6.95a8.05,8.05,0,0,1,4-1.28c-1.61,6.65-7.67,9.56-8.61,10A10,10,0,0,1,9.41,23.61ZM9,8.76c.72,2.15,2.39,5.93,5.75,7.75a8.17,8.17,0,0,1-1.92,2.58c-1.17-.62-4.07-2.72-5.29-8.54A10.48,10.48,0,0,1,9,8.76Zm6.94,6.1A8.36,8.36,0,0,1,12.8,12a14.65,14.65,0,0,1,12.48.06,9.5,9.5,0,0,1,.56,1.76C23.58,13.3,19.29,12.73,15.93,14.86Zm7.48-5.68a17.13,17.13,0,0,0-11.64,1.09,18.77,18.77,0,0,1-1.09-2.82A10,10,0,0,1,23.41,9.18ZM6.25,13.48a13.06,13.06,0,0,0,4.9,6.92A17.22,17.22,0,0,1,8,22.05a10,10,0,0,1-1.7-8.57ZM16,26.08c-.27,0-.54,0-.81,0a16.66,16.66,0,0,0,7.72-10.65,17.17,17.17,0,0,1,3.17.57v0A10.09,10.09,0,0,1,16,26.08Z"/></svg>