<svg id="Layer_1" data-name="Layer 1" xmlns="http://www.w3.org/2000/svg" viewBox="0 0 32 32"><defs><style>.cls-1{fill:#747987;}</style></defs><title>Yoga</title><path class="cls-1" d="M24.45,3.84A6.61,6.61,0,0,0,18.7,3.2a9.63,9.63,0,0,0-5,4,9.15,9.15,0,0,0-1.18,8.1L11.33,22,7.6,27.62A1,1,0,0,0,7.88,29a1,1,0,0,0,.55.17,1,1,0,0,0,.84-.45L13,23.05l6-3.74a9.26,9.26,0,0,0,6.66-4.26C28.31,11.05,27.76,6,24.45,3.84ZM23.19,15l-1.27-.84,1.36-2.07,1.28.84A9.06,9.06,0,0,1,24,14,9.63,9.63,0,0,1,23.19,15ZM21,4.83a4.27,4.27,0,0,1,1.92.44l-.73,1.12L20.33,5.17l.2-.3A3.57,3.57,0,0,1,21,4.83Zm-2,.63L17.75,7.27l-1-.66a7.62,7.62,0,0,1,2-1.29Zm.84.55,1.85,1.21L20.44,9,18.59,7.82ZM16.44,16.93l.45-.7,1.71,1.13A4.41,4.41,0,0,1,16.44,16.93Zm1-1.53,1.37-2.08,1.72,1.14-1.36,2.07Zm1.92-2.91,1.36-2.07,1.72,1.13-1.36,2.07Zm1.91-2.91,1.19-1.81L24.19,8.9,23,10.72Zm-1.38.29-1.37,2.07-1.84-1.22L18,8.65ZM18,12.77l-1.36,2.08-1.85-1.22,1.37-2.07ZM14,13a7,7,0,0,1,.33-2.56l.94.62Zm.36,1.63,1.68,1.1-.44.67A4.28,4.28,0,0,1,14.38,14.58ZM20,17.08,21.37,15l1.08.71A7,7,0,0,1,20,17.09Zm3.83-5.81L25,9.45l.31.21A7.44,7.44,0,0,1,24.94,12ZM25,7.68l-.26.39L23,6.94l.72-1.1A4.37,4.37,0,0,1,25,7.68Zm-9.65.57a7.08,7.08,0,0,1,.7-.91l1.16.76-1.36,2.07L14.7,9.42A8.36,8.36,0,0,1,15.34,8.25ZM14.1,17.71a6.23,6.23,0,0,0,.8.64,5.51,5.51,0,0,0,1,.53l-2.27,1.41Z"/></svg>