<svg id="Layer_1" data-name="Layer 1" xmlns="http://www.w3.org/2000/svg" viewBox="0 0 32 32"><defs><style>.cls-1{fill:#747987;}</style></defs><title>Football</title><path class="cls-1" d="M21.64,7.77l-3,0L16.88,4.16,13,4.56,9.15,16.13l-3,3.92A4.78,4.78,0,0,0,7,26.77a4.72,4.72,0,0,0,2.92,1,4.4,4.4,0,0,0,.62,0,4.72,4.72,0,0,0,3.18-1.83l3-3.88L27,15.29l-.6-3.82-3.93-.79Zm-1.13,3.5-6.46,7.16-.78-.6,5.28-8.08h1.56Zm-6-4.85L15.7,6.3l1.16,2.38-5.17,7.93-.47-.36Zm-.23,14.72h0l.36.28-.53.69L9.69,18.7l.54-.69.36.28h0Zm-4,4.61a2.8,2.8,0,0,1-2.58-4.48l.76-1,4.43,3.41-.76,1A2.8,2.8,0,0,1,10.29,25.75ZM24.78,14.33,16.12,20l-.48-.37,6.34-7,2.62.52Z"/></svg>